<svg width="30.000000" height="30.000000" viewBox="0 0 30 30" fill="none" xmlns="http://www.w3.org/2000/svg" xmlns:xlink="http://www.w3.org/1999/xlink">
	<desc>
			Created with Pixso.
	</desc>
	<defs>
		<clipPath id="clip30_1671">
			<rect id="menu-2-outline 1" width="30.000000" height="30.000000" fill="white" fill-opacity="0"/>
		</clipPath>
	</defs>
	<rect id="menu-2-outline 1" width="30.000000" height="30.000000" fill="#FFFFFF" fill-opacity="0"/>
	<g clip-path="url(#clip30_1671)">
		<path id="Vector" d="M6.25 15C6.25 15.69 5.69 16.25 5 16.25C4.3 16.25 3.75 15.69 3.75 15C3.75 14.3 4.3 13.75 5 13.75C5.69 13.75 6.25 14.3 6.25 15Z" fill="#000000" fill-opacity="1.000000" fill-rule="evenodd"/>
		<path id="Vector" d="M9.92 13.75L25.07 13.75C25.72 13.75 26.25 14.27 26.25 14.92L26.25 15.07C26.25 15.72 25.72 16.25 25.07 16.25L9.92 16.25C9.27 16.25 8.75 15.72 8.75 15.07L8.75 14.92C8.75 14.27 9.27 13.75 9.92 13.75Z" fill="#000000" fill-opacity="1.000000" fill-rule="evenodd"/>
		<path id="Vector" d="M4.92 20L25.07 20C25.72 20 26.25 20.52 26.25 21.17L26.25 21.32C26.25 21.97 25.72 22.5 25.07 22.5L4.92 22.5C4.27 22.5 3.75 21.97 3.75 21.32L3.75 21.17C3.75 20.52 4.27 20 4.92 20Z" fill="#000000" fill-opacity="1.000000" fill-rule="evenodd"/>
		<path id="Vector" d="M4.92 7.5L25.07 7.5C25.72 7.5 26.25 8.02 26.25 8.67L26.25 8.82C26.25 9.47 25.72 10 25.07 10L4.92 10C4.27 10 3.75 9.47 3.75 8.82L3.75 8.67C3.75 8.02 4.27 7.5 4.92 7.5Z" fill="#000000" fill-opacity="1.000000" fill-rule="evenodd"/>
	</g>
</svg>
